<svg version="1.1" xmlns="http://www.w3.org/2000/svg" viewBox="0 0 119.05830169434067 139.17955289916546" width="357.174905083022" height="417.5386586974964">
  <!-- svg-source:excalidraw -->
  
  <defs>
    <style>
      @font-face {
        font-family: "Virgil";
        src: url("https://excalidraw.com/Virgil.woff2");
      }
      @font-face {
        font-family: "Cascadia";
        src: url("https://excalidraw.com/Cascadia.woff2");
      }
    </style>
  </defs>
  <g stroke-linecap="round" transform="translate(10 10) rotate(0 49.529150847170335 59.58977644958273)"><path d="M0.24 0.21 L98.33 -1.66 L100.46 118.14 L0.96 120.77" stroke="none" stroke-width="0" fill="#a9e2a1"></path><path d="M0.69 1.5 C36.05 0.46, 74.08 1.76, 99.15 1.47 M-0.59 -0.71 C28.29 -0.89, 57.37 -0.09, 100.05 -0.41 M97.18 0.94 C99.43 38.67, 98.63 80.29, 99.22 117.59 M98.53 0.88 C98.39 37.33, 99.44 74.99, 98.67 120.01 M100.24 119.53 C67.05 118.16, 31.1 120.98, -1.98 119.89 M98.23 118.62 C78.59 118.53, 56.41 117.56, -0.33 119.2 M-0.58 119.05 C-0.06 90.3, -0.89 60.78, -0.38 -0.91 M-0.79 120 C-0.38 89.43, 0.11 62.4, 0.59 -0.47" stroke="#2b8a3e" stroke-width="2" fill="none"></path></g><g transform="translate(12.974648374645312 100.30938000541954) rotate(0 46.55450247252221 12.23718350706298)"><text x="46.55450247252221" y="17.47436701412595" font-family="Virgil, Segoe UI Emoji" font-size="19.083512847730894px" fill="#000000" text-anchor="middle" style="white-space: pre;" direction="ltr">Stateless</text></g><g stroke-linecap="round" transform="translate(24.565934751204622 19.611826970053016) rotate(0 34.96321609596498 34.96321609596498)"><path d="M25.43 1.18 C31.53 -0.83, 41.29 0.04, 47.75 2.5 C54.21 4.96, 60.55 10.33, 64.21 15.93 C67.86 21.54, 70.12 29.41, 69.7 36.14 C69.28 42.88, 65.97 51.05, 61.67 56.34 C57.38 61.64, 50.29 66.16, 43.92 67.89 C37.55 69.63, 29.97 69.1, 23.44 66.74 C16.91 64.38, 8.54 59.19, 4.76 53.72 C0.98 48.25, 0.35 40.67, 0.76 33.92 C1.17 27.17, 2.39 18.88, 7.2 13.24 C12.01 7.59, 25.41 2.03, 29.64 0.06 C33.88 -1.91, 32.63 0.71, 32.62 1.43 M47.23 1.73 C53.38 3.8, 61.3 10.34, 65.14 16.53 C68.99 22.73, 70.72 31.95, 70.31 38.91 C69.89 45.86, 67.05 53.05, 62.62 58.25 C58.2 63.46, 50.41 68.66, 43.77 70.13 C37.13 71.61, 29.46 69.83, 22.77 67.12 C16.07 64.4, 7.25 59.74, 3.59 53.86 C-0.07 47.97, -0.18 38.52, 0.81 31.81 C1.8 25.09, 5.26 18.57, 9.53 13.57 C13.8 8.58, 20.13 3.62, 26.43 1.83 C32.72 0.04, 43.72 2.76, 47.31 2.84 C50.91 2.93, 48.02 1.87, 47.99 2.34" stroke="none" stroke-width="0" fill="#27d9fc"></path><path d="M33.44 0.77 C39.94 -0.21, 48.35 1.51, 54.15 5.06 C59.96 8.61, 65.96 15.68, 68.26 22.09 C70.56 28.49, 69.93 36.91, 67.96 43.49 C65.99 50.07, 61.6 57, 56.44 61.56 C51.28 66.13, 43.86 70.39, 37.01 70.88 C30.15 71.37, 21.25 68.38, 15.3 64.5 C9.35 60.62, 3.81 53.99, 1.31 47.6 C-1.19 41.2, -1.78 32.91, 0.32 26.14 C2.42 19.36, 7.84 11.29, 13.9 6.96 C19.96 2.63, 32.45 1.28, 36.68 0.15 C40.91 -0.98, 39.33 -0.33, 39.29 0.17 M30.58 -0.58 C37.34 -2.23, 47.42 -0.38, 53.34 3.31 C59.26 6.99, 63.37 15.24, 66.12 21.54 C68.87 27.85, 70.97 34.46, 69.82 41.12 C68.68 47.78, 64.35 56.57, 59.27 61.51 C54.19 66.45, 46.43 70.23, 39.36 70.75 C32.3 71.28, 22.71 68.44, 16.86 64.67 C11.02 60.9, 6.91 54.43, 4.3 48.14 C1.69 41.84, 0.13 33.55, 1.2 26.91 C2.27 20.27, 5.99 12.87, 10.72 8.28 C15.45 3.7, 25.99 0.62, 29.59 -0.59 C33.19 -1.81, 32.01 0.49, 32.33 0.97" stroke="#2b8a3e" stroke-width="2" fill="none"></path></g><g stroke-linecap="round"><g transform="translate(26.97974235050242 44.834889501024065) rotate(180 33.25343348890604 4.401593585806268)"><path d="M-0.71 -0.11 C1.77 1.15, 7.29 6.89, 15.3 8.46 C23.32 10.03, 38.79 10.59, 47.4 9.3 C56.02 8.01, 63.62 2.13, 67.01 0.72 M1.12 -1.21 C3.39 -0.38, 6.65 5.25, 14.24 6.69 C21.83 8.13, 37.84 8.31, 46.67 7.42 C55.5 6.54, 63.88 2.46, 67.22 1.37" stroke="#2b8a3e" stroke-width="2" fill="none"></path></g></g><g stroke-linecap="round"><g transform="translate(34.10976039341131 76.73558313422737) rotate(0 24.197125859429065 2.235098736776621)"><path d="M-0.11 -0.23 C1.86 0.47, 6.62 2.78, 12.68 3.45 C18.75 4.13, 30.04 4.26, 36.26 3.83 C42.48 3.39, 47.7 1.6, 50.02 0.85 M-1.62 -1.39 C0.16 -0.43, 5.83 3.94, 12.09 5.02 C18.35 6.1, 29.67 6.16, 35.95 5.1 C42.24 4.04, 47.14 -0.38, 49.81 -1.35" stroke="#2b8a3e" stroke-width="2" fill="none"></path></g></g><g stroke-linecap="round"><g transform="translate(26.75298729443557 58.26596979535083) rotate(0 32.066377686188474 5.725818472037943)"><path d="M-0.23 0.67 C2.39 2.47, 7.4 9.18, 15.03 10.7 C22.66 12.21, 37.17 11.32, 45.55 9.76 C53.94 8.19, 62.29 2.74, 65.34 1.3 M-1.81 -0.02 C0.72 1.46, 6.35 7.26, 14.11 9.04 C21.86 10.81, 36.1 11.79, 44.74 10.62 C53.38 9.45, 62.47 3.64, 65.94 2.03" stroke="#2b8a3e" stroke-width="2" fill="none"></path></g></g><g stroke-linecap="round"><g transform="translate(34.98549728645867 29.355160229447677) rotate(180 24.87307313921017 1.977092798779438)"><path d="M0.67 0.06 C2.84 0.65, 7.25 2.56, 12.89 3.32 C18.53 4.07, 28.3 5.25, 34.51 4.58 C40.73 3.92, 47.6 0.12, 50.18 -0.68 M-0.43 -0.96 C1.66 -0.15, 6.17 4.22, 12.4 4.81 C18.64 5.4, 30.68 3.4, 36.95 2.6 C43.23 1.79, 47.6 0.41, 50.06 -0.03" stroke="#2b8a3e" stroke-width="2" fill="none"></path></g></g><g stroke-linecap="round"><g transform="translate(18.83031055072297 48.34979349743361) rotate(90 32.432091284394886 4.806547514759998)"><path d="M0.06 0.88 C2.67 1.92, 7.46 5.78, 15.45 6.92 C23.45 8.06, 39.56 8.76, 48.03 7.72 C56.49 6.68, 63.13 1.84, 66.24 0.67 M-1.37 0.3 C1.09 1.41, 6.3 6.61, 14.46 8 C22.63 9.4, 39.02 9.78, 47.62 8.67 C56.21 7.55, 62.53 2.63, 66.04 1.29" stroke="#2b8a3e" stroke-width="2" fill="none"></path></g></g><g stroke-linecap="round"><g transform="translate(56.97591265192432 52.13227566431152) rotate(270 24.923694343437376 1.5346928699033384)"><path d="M0.88 -0.08 C2.63 0.59, 5.51 3.55, 11.15 4.07 C16.78 4.6, 28.2 3.77, 34.67 3.05 C41.14 2.34, 47.41 0.16, 49.97 -0.22 M-0.12 -1.17 C1.95 -0.85, 7.19 1.46, 13.4 2.31 C19.62 3.16, 31.14 4.2, 37.2 3.92 C43.25 3.65, 47.31 1.09, 49.73 0.68" stroke="#2b8a3e" stroke-width="2" fill="none"></path></g></g><g stroke-linecap="round"><g transform="translate(35.590954107188736 50.74058440808318) rotate(270 31.36264741353775 5.326699822821752)"><path d="M-0.08 -0.86 C2.52 0.51, 8.17 7.35, 15.65 9.11 C23.12 10.87, 36.68 11.03, 44.78 9.7 C52.88 8.37, 60.86 2.21, 64.27 1.12 M-1.58 1.3 C0.91 2.73, 6.92 8.74, 15.06 10.28 C23.19 11.82, 39.02 11.96, 47.23 10.54 C55.44 9.12, 61.5 3.43, 64.31 1.77" stroke="#2b8a3e" stroke-width="2" fill="none"></path></g></g><g stroke-linecap="round"><g transform="translate(10.352480070610454 52.540451362132615) rotate(90 24.570772950324162 1.7049146137422042)"><path d="M-0.86 0.68 C0.87 1.12, 5.42 2.07, 11.31 2.54 C17.19 3.02, 28.01 3.82, 34.46 3.51 C40.91 3.21, 47.07 1.37, 50.01 0.73 M0.88 -0.01 C2.93 0.56, 7.65 2.86, 13.65 3.63 C19.65 4.41, 30.85 5.49, 36.87 4.63 C42.9 3.77, 47.4 -0.72, 49.79 -1.53" stroke="#2b8a3e" stroke-width="2" fill="none"></path></g></g></svg>